<?xml version="1.0" encoding="UTF-8"?>
<!DOCTYPE svg PUBLIC "-//W3C//DTD SVG 1.1//EN" "http://www.w3.org/Graphics/SVG/1.1/DTD/svg11.dtd">
<!-- Creator: CorelDRAW X7 -->
<svg xmlns="http://www.w3.org/2000/svg" xml:space="preserve" width="2.1166mm" height="2.1166mm" version="1.1" style="shape-rendering:geometricPrecision; text-rendering:geometricPrecision; image-rendering:optimizeQuality; fill-rule:evenodd; clip-rule:evenodd"
viewBox="0 0 212 212"
 xmlns:xlink="http://www.w3.org/1999/xlink">
 <defs>
  <style type="text/css">
   <![CDATA[
    .fil2 {fill:none}
    .fil0 {fill:#00009C}
    .fil1 {fill:#FEFEFE;fill-rule:nonzero}
   ]]>
  </style>
   <clipPath id="id0">
    <path d="M106 21c47,0 85,38 85,85 0,47 -38,84 -85,84 -47,0 -85,-37 -85,-84 0,-47 38,-85 85,-85z"/>
   </clipPath>
 </defs>
 <g id="Layer_x0020_1">
  <metadata id="CorelCorpID_0Corel-Layer"/>
  <path class="fil0" d="M106 21c47,0 85,38 85,85 0,47 -38,84 -85,84 -47,0 -85,-37 -85,-84 0,-47 38,-85 85,-85z"/>
  <g style="clip-path:url(#id0)">
   <g id="_621606104">
    <path id="1" class="fil1" d="M89 97l0 17 -21 0 0 24 21 0 0 57 25 0 0 -57 18 0 4 -24 -22 0 0 -15c0,-6 3,-12 13,-12l10 0 0 -20c0,0 -9,-1 -18,-1 -18,0 -30,11 -30,31z"/>
   </g>
  </g>
  <path class="fil2" d="M106 21c47,0 85,38 85,85 0,47 -38,84 -85,84 -47,0 -85,-37 -85,-84 0,-47 38,-85 85,-85z"/>
 </g>
</svg>
