<?xml version="1.0" encoding="UTF-8"?>
<!DOCTYPE svg PUBLIC "-//W3C//DTD SVG 1.1//EN" "http://www.w3.org/Graphics/SVG/1.1/DTD/svg11.dtd">
<!-- Creator: CorelDRAW X7 -->
<svg xmlns="http://www.w3.org/2000/svg" xml:space="preserve" width="297mm" height="210mm" version="1.1" style="shape-rendering:geometricPrecision; text-rendering:geometricPrecision; image-rendering:optimizeQuality; fill-rule:evenodd; clip-rule:evenodd"
viewBox="0 0 29700 21000"
 xmlns:xlink="http://www.w3.org/1999/xlink">
 <defs>
  <style type="text/css">
   <![CDATA[
    .fil0 {fill:#2B2A29}
    .fil4 {fill:#352999}
    .fil2 {fill:#E02029}
    .fil3 {fill:#E02029;fill-rule:nonzero}
    .fil1 {fill:#352999}
   ]]>
  </style>
 </defs>
 <g id="Layer_x0020_1">
  <metadata id="CorelCorpID_0Corel-Layer"/>
  <g id="_635579760">
   <path class="fil0" d="M13979 10970l-7 0c-13,15 -20,30 -20,46 0,11 2,20 6,29l6 0c-2,-7 -3,-16 -3,-25 0,-18 6,-34 18,-50zm48 1l-40 0 -12 59 10 0 6 -26 25 0 2 -8 -26 0 4 -17 29 0 2 -8zm41 33c0,-6 -2,-10 -5,-14 -3,-3 -8,-4 -13,-4 -7,0 -13,2 -18,7 -4,5 -6,12 -6,19 0,6 1,11 5,14 3,3 7,5 13,5 7,0 13,-3 17,-8 5,-5 7,-12 7,-19zm-19 -11c3,0 5,1 7,3 2,2 3,4 3,8 0,5 -2,10 -4,14 -3,4 -6,6 -10,6 -3,0 -6,-1 -8,-3 -1,-2 -2,-5 -2,-9 0,-5 1,-10 4,-14 3,-3 6,-5 10,-5zm57 -7c-1,0 -2,0 -3,0 -6,0 -11,3 -14,9l1 -8 -8 0 -9 43 9 0 4 -19c2,-11 7,-16 15,-16 1,0 2,0 3,0l2 -9zm16 1l-9 0 -9 43 10 0 5 -25c1,-3 2,-6 4,-8 3,-2 5,-3 8,-3 2,0 3,0 4,1 1,1 1,2 1,3 0,2 0,4 0,7l-6 25 10 0 5 -25c0,-4 2,-6 4,-8 2,-2 5,-3 8,-3 1,0 3,0 4,1 1,1 1,2 1,4 0,1 0,3 -1,6l-5 25 10 0 5 -25c1,-4 1,-7 1,-9 0,-3 -1,-5 -3,-7 -3,-2 -5,-3 -9,-3 -5,0 -10,2 -14,7 -1,-5 -5,-7 -11,-7 -3,0 -5,0 -8,2 -2,1 -5,3 -6,5l1 -6zm95 29l-9 0c-2,5 -5,8 -10,8 -3,0 -6,-1 -7,-3 -2,-2 -3,-4 -3,-8 0,0 0,-1 0,-2l31 0c0,-3 1,-5 1,-7 0,-6 -2,-10 -5,-13 -3,-4 -7,-5 -13,-5 -6,0 -12,2 -16,7 -5,5 -7,12 -7,19 0,6 2,11 5,14 3,3 8,5 13,5 5,0 10,-1 13,-4 4,-2 6,-6 7,-11zm-28 -12c1,-3 3,-6 5,-8 2,-2 5,-3 8,-3 3,0 5,1 7,2 1,2 2,5 2,8l0 1 -22 0zm68 -18c-1,0 -2,0 -3,0 -6,0 -11,3 -15,9l2 -8 -8 0 -9 43 9 0 4 -19c2,-11 7,-16 15,-16 1,0 2,0 3,0l2 -9zm19 -15l-9 0 -12 59 9 0 12 -59zm43 16l-10 0 -9 19c-3,5 -5,9 -7,14 0,-5 -1,-10 -2,-17l-2 -16 -10 0 7 40 -1 4c0,1 -1,2 -1,2 0,1 -1,1 -1,2 -1,1 -2,2 -2,2 -1,1 -2,1 -3,1 -1,0 -3,0 -5,0l-1 7c2,1 3,1 5,1 4,0 7,-1 9,-3 3,-1 5,-4 7,-8l26 -48zm93 -16l-48 0 -1 8 18 0 -10 51 10 0 11 -51 18 0 2 -8zm15 0l-9 0 -12 59 9 0 5 -23c1,-4 2,-7 5,-9 2,-3 5,-4 8,-4 5,0 7,2 7,5 0,2 -1,4 -1,6l-5 25 9 0 5 -26c1,-3 1,-5 1,-7 0,-3 -1,-6 -3,-8 -2,-2 -5,-3 -9,-3 -5,0 -10,2 -14,7l4 -22zm70 16l-9 0 -10 19c-2,5 -5,9 -6,14 -1,-5 -1,-10 -2,-17l-3 -16 -9 0 7 40 -2 4c0,1 0,2 -1,2 0,1 0,1 -1,2 -1,1 -1,2 -2,2 -1,1 -2,1 -3,1 -1,0 -3,0 -4,0l-2 7c2,1 4,1 6,1 3,0 6,-1 9,-3 2,-1 4,-4 6,-8l26 -48zm33 -1c-1,0 -2,0 -4,0 -6,0 -10,3 -14,9l2 -8 -9 0 -9 43 9 0 4 -19c3,-11 7,-16 15,-16 1,0 2,0 4,0l2 -9zm42 18c0,-6 -2,-10 -5,-14 -3,-3 -8,-4 -14,-4 -6,0 -12,2 -17,7 -4,5 -6,12 -6,19 0,6 1,11 4,14 4,3 8,5 14,5 7,0 13,-3 17,-8 5,-5 7,-12 7,-19zm-19 -11c3,0 5,1 7,3 2,2 3,4 3,8 0,5 -2,10 -5,14 -2,4 -5,6 -9,6 -4,0 -6,-1 -8,-3 -1,-2 -2,-5 -2,-9 0,-5 1,-10 4,-14 3,-3 6,-5 10,-5zm65 22l-10 0c0,3 -2,5 -3,6 -2,2 -4,3 -7,3 -6,0 -9,-4 -9,-12 0,-3 0,-6 1,-9 1,-2 3,-5 5,-7 2,-2 5,-3 8,-3 2,0 4,1 6,2 1,1 2,3 2,6l0 0 9 0 0 -1c0,-4 -2,-8 -5,-10 -3,-3 -7,-4 -12,-4 -7,0 -13,2 -17,8 -4,5 -7,11 -7,18 0,6 2,11 5,14 3,3 8,5 13,5 6,0 10,-2 13,-4 4,-3 6,-7 8,-12zm11 -15l8 0c1,-5 5,-7 10,-7 5,0 8,2 8,5 0,3 -1,4 -2,5 -1,1 -2,1 -3,1 -1,0 -2,0 -3,0 -1,1 -2,1 -4,1 -1,0 -2,0 -2,0 -3,0 -6,1 -9,1 -2,1 -4,3 -6,5 -2,2 -3,5 -3,8 0,4 1,7 4,9 2,2 5,3 9,3 6,0 11,-2 14,-6 0,2 1,4 2,4 1,1 3,2 5,2 2,0 4,-1 6,-1l1 -7c-1,0 -2,0 -3,0 -1,0 -2,0 -2,-1 0,-1 0,-3 1,-5l3 -13c0,-3 1,-6 1,-8 0,-3 -2,-5 -5,-7 -2,-2 -6,-3 -11,-3 -11,0 -18,5 -19,14zm24 8l-2 8c0,2 -2,4 -4,6 -2,1 -4,2 -7,2 -3,0 -4,0 -6,-1 -1,-1 -1,-3 -1,-5 0,-4 2,-7 8,-7l3 0c1,0 2,-1 3,-1 1,0 2,0 3,0 2,-1 2,-1 3,-2zm50 -22c-1,0 -2,0 -3,0 -6,0 -11,3 -15,9l2 -8 -9 0 -9 43 10 0 4 -19c2,-11 7,-16 14,-16 2,0 3,0 4,0l2 -9zm38 30l-9 0c-2,5 -6,8 -11,8 -3,0 -5,-1 -7,-3 -2,-2 -3,-4 -3,-8 0,0 0,-1 0,-2l31 0c1,-3 1,-5 1,-7 0,-6 -2,-10 -5,-13 -3,-4 -7,-5 -12,-5 -7,0 -13,2 -17,7 -4,5 -7,12 -7,19 0,6 2,11 5,14 3,3 8,5 14,5 5,0 9,-1 13,-4 3,-2 6,-6 7,-11zm-28 -12c0,-3 2,-6 4,-8 2,-2 5,-3 8,-3 3,0 5,1 7,2 2,2 2,5 2,8l0 1 -21 0zm132 -6l-25 0 -2 8 16 0c-3,11 -9,17 -18,17 -5,0 -9,-2 -11,-5 -3,-3 -4,-7 -4,-12 0,-5 1,-9 2,-13 2,-4 4,-8 7,-11 4,-2 8,-4 12,-4 5,0 8,1 10,3 2,2 4,5 4,9l10 0c0,-7 -3,-12 -7,-15 -4,-4 -10,-5 -16,-5 -10,0 -18,3 -24,10 -5,7 -8,15 -8,26 0,7 2,14 6,18 4,5 10,7 17,7 8,0 13,-3 18,-8l0 7 6 0 7 -32zm49 -11l-9 0 -5 22c-1,4 -2,7 -4,10 -2,3 -5,4 -8,4 -2,0 -4,0 -5,-1 -1,-1 -2,-3 -2,-4 0,-2 0,-5 1,-9l5 -22 -9 0 -6 26c0,3 -1,5 -1,7 0,3 2,6 4,8 2,2 5,3 9,3 6,0 10,-3 14,-8l-1 7 8 0 9 -43zm24 -16l-9 0 -12 59 9 0 12 -59zm28 16l-8 0 1 -2c0,0 0,0 0,0 0,0 0,0 0,-1 0,0 0,0 0,0 0,-1 0,-2 1,-3 0,0 0,-1 1,-1 0,-1 1,-2 2,-2 0,0 1,0 3,0 1,0 2,0 3,0l1 -7c-2,-1 -4,-1 -6,-1 -4,0 -7,1 -9,3 -2,2 -4,5 -5,8l-1 6 -7 0 -1 7 7 0 -8 36 9 0 8 -36 8 0 1 -7zm62 -16l-10 0 -13 59 40 0 2 -9 -30 0 11 -50zm30 29l8 0c1,-5 5,-7 10,-7 5,0 8,2 8,5 0,3 -1,4 -2,5 -1,1 -2,1 -3,1 -1,0 -2,0 -3,0 -1,1 -3,1 -4,1 -1,0 -2,0 -2,0 -3,0 -6,1 -9,1 -2,1 -4,3 -6,5 -2,2 -3,5 -3,8 0,4 1,7 4,9 2,2 5,3 9,3 6,0 10,-2 14,-6 0,2 1,4 2,4 1,1 3,2 5,2 1,0 4,-1 6,-1l1 -7c-1,0 -3,0 -3,0 -2,0 -2,0 -2,-1 0,-1 0,-3 1,-5l3 -13c0,-3 1,-6 1,-8 0,-3 -2,-5 -5,-7 -3,-2 -6,-3 -11,-3 -11,0 -18,5 -19,14zm24 8l-2 8c-1,2 -2,4 -4,6 -2,1 -4,2 -7,2 -3,0 -4,0 -6,-1 -1,-1 -2,-3 -2,-5 0,-4 3,-7 9,-7l3 0c1,0 2,-1 3,-1 1,0 2,0 3,0 1,-1 2,-1 3,-2zm38 -37l-9 0 -13 59 9 0 1 -8c2,6 7,9 14,9 7,0 12,-3 16,-9 4,-5 6,-11 6,-18 0,-6 -2,-10 -4,-13 -3,-4 -7,-5 -12,-5 -5,0 -9,2 -13,6l5 -21zm5 22c3,0 6,1 7,3 2,2 3,5 3,8 0,5 -2,10 -5,14 -2,4 -6,5 -10,5 -2,0 -5,-1 -6,-2 -2,-2 -3,-5 -3,-8 0,-5 1,-9 4,-14 2,-4 6,-6 10,-6zm68 11c0,-6 -1,-10 -5,-14 -3,-3 -7,-4 -13,-4 -7,0 -13,2 -17,7 -5,5 -7,12 -7,19 0,6 2,11 5,14 3,3 8,5 14,5 7,0 13,-3 17,-8 4,-5 6,-12 6,-19zm-18 -11c3,0 5,1 7,3 1,2 2,4 2,8 0,5 -1,10 -4,14 -3,4 -6,6 -10,6 -3,0 -5,-1 -7,-3 -2,-2 -3,-5 -3,-9 0,-5 2,-10 4,-14 3,-3 7,-5 11,-5zm57 -7c-1,0 -2,0 -3,0 -6,0 -11,3 -15,9l2 -8 -9 0 -9 43 10 0 4 -19c2,-11 7,-16 14,-16 1,0 3,0 4,0l2 -9zm3 14l9 0c1,-5 4,-7 10,-7 5,0 7,2 7,5 0,3 0,4 -2,5 0,1 -1,1 -2,1 -2,0 -3,0 -4,0 -1,1 -2,1 -3,1 -2,0 -3,0 -3,0 -3,0 -5,1 -8,1 -2,1 -5,3 -6,5 -2,2 -3,5 -3,8 0,4 1,7 3,9 3,2 6,3 10,3 5,0 10,-2 14,-6 0,2 1,4 2,4 1,1 2,2 5,2 1,0 3,-1 6,-1l1 -7c-2,0 -3,0 -4,0 -1,0 -1,0 -1,-1 0,-1 0,-3 0,-5l3 -13c1,-3 1,-6 1,-8 0,-3 -1,-5 -4,-7 -3,-2 -7,-3 -12,-3 -11,0 -17,5 -19,14zm25 8l-2 8c-1,2 -2,4 -4,6 -2,1 -4,2 -8,2 -2,0 -4,0 -5,-1 -1,-1 -2,-3 -2,-5 0,-4 3,-7 9,-7l2 0c2,0 3,-1 4,-1 1,0 2,0 3,0 1,-1 2,-1 3,-2zm44 -21l-8 0 3 -13 -9 0 -3 13 -7 0 -2 7 8 0 -5 21c-1,3 -1,6 -1,7 0,5 3,8 10,8 2,0 4,0 6,-1l2 -7c-2,0 -3,0 -4,0 -3,0 -4,-1 -4,-2 0,-1 0,-3 0,-5l5 -21 8 0 1 -7zm45 17c0,-6 -2,-10 -5,-14 -3,-3 -8,-4 -14,-4 -7,0 -12,2 -17,7 -4,5 -6,12 -6,19 0,6 1,11 4,14 4,3 8,5 14,5 7,0 13,-3 17,-8 4,-5 7,-12 7,-19zm-19 -11c3,0 5,1 7,3 2,2 2,4 2,8 0,5 -1,10 -4,14 -2,4 -6,6 -9,6 -4,0 -6,-1 -8,-3 -1,-2 -2,-5 -2,-9 0,-5 1,-10 4,-14 3,-3 6,-5 10,-5zm57 -7c-1,0 -2,0 -3,0 -6,0 -11,3 -15,9l2 -8 -8 0 -9 43 9 0 4 -19c2,-11 7,-16 15,-16 1,0 2,0 3,0l2 -9zm16 1l-9 0 -9 43 9 0 9 -43zm3 -16l-9 0 -2 9 9 0 2 -9zm40 45l-9 0c-2,5 -6,8 -11,8 -3,0 -5,-1 -7,-3 -2,-2 -3,-4 -3,-8 0,0 1,-1 1,-2l31 0c0,-3 0,-5 0,-7 0,-6 -1,-10 -4,-13 -4,-4 -8,-5 -13,-5 -7,0 -12,2 -17,7 -4,5 -6,12 -6,19 0,6 1,11 4,14 4,3 8,5 14,5 5,0 9,-1 13,-4 3,-2 6,-6 7,-11zm-28 -12c1,-3 2,-6 4,-8 3,-2 5,-3 8,-3 3,0 6,1 7,2 2,2 2,5 2,8l0 1 -21 0zm72 -5l0 -1c0,-4 -1,-7 -4,-9 -3,-2 -7,-3 -12,-3 -5,0 -9,1 -12,3 -3,3 -5,6 -5,10 0,1 0,3 1,4 0,1 1,2 1,3 1,0 2,1 3,2 2,0 3,1 3,1 1,1 2,1 4,2 0,0 0,0 0,0 4,1 7,2 8,3 1,1 2,2 2,4 0,2 -1,3 -2,4 -2,1 -4,2 -7,2 -6,0 -9,-3 -9,-8l0 0 -9 0 0 1c0,4 2,8 5,10 3,3 7,4 13,4 5,0 9,-1 13,-4 3,-2 5,-6 5,-11 0,-5 -4,-9 -11,-11 0,0 -1,-1 -1,-1 -4,-1 -6,-2 -8,-3 -1,-1 -2,-2 -2,-3 0,-2 1,-3 2,-4 1,-1 3,-2 6,-2 2,0 4,1 6,2 1,1 2,3 2,5l8 0zm125 -28l-11 0 -10 25c-4,8 -7,16 -9,23 0,-4 0,-11 -1,-23l-2 -25 -10 0 -12 27c-3,8 -6,15 -8,21 0,-4 0,-11 -1,-21l-1 -27 -10 0 4 59 11 0 12 -29c3,-6 6,-12 8,-19 0,6 0,12 1,16l2 32 10 0 27 -59zm3 47l-11 0 -3 12 12 0 2 -12zm33 -47l-10 0 -12 59 39 0 2 -9 -29 0 10 -50zm39 47l-12 0 -2 12 11 0 3 -12zm33 -47l-10 0 -13 59 40 0 2 -9 -30 0 11 -50zm45 27c0,-10 -2,-19 -6,-28l-6 0c2,7 3,16 3,25 0,18 -6,34 -18,50l7 0c13,-15 20,-30 20,-47z"/>
   <path class="fil1" d="M14475 10262l21 44 35 71 33 -70 22 -45 22 44 77 159 -45 0 -54 -114 -34 69 -22 45 -1 0 -21 -42 -34 -71 -56 113 -41 0 75 -157 23 -46zm-45 1l-79 160 -21 42 0 0 -20 -42 -80 -161 1 -2 40 0 59 121 60 -121 38 0 2 3zm-224 47l76 155 -41 0 -56 -113 0 0 0 1 -36 75 32 -1 18 38 -69 0 -48 0 79 -161 21 -42 24 48z"/>
   <g>
    <path class="fil2" d="M14786 9983l0 759 -805 0 0 -759 805 0zm-787 380c0,205 166,372 372,372 206,0 373,-167 373,-372 0,-206 -167,-373 -373,-373 -206,0 -372,167 -372,373z"/>
    <path id="1" class="fil3" d="M14786 10742l0 -759 0 0 0 759 0 1 0 -1zm0 0l0 1 0 0 0 -1zm-805 0l805 0 0 1 -805 0 -1 -1 1 0zm0 1l-1 0 0 -1 1 1zm0 -760l0 759 -1 0 0 -759 1 -1 0 1zm-1 0l0 -1 1 0 -1 1zm806 0l-805 0 0 -1 805 0 0 1 0 0zm0 -1l0 0 0 1 0 -1zm-415 753l0 0 0 0 -19 0 -19 -2 -19 -2 -18 -3 -18 -4 -18 -5 -17 -6 -17 -7 -17 -7 -16 -9 -15 -9 -15 -9 -15 -11 -14 -11 -14 -11 -13 -13 -12 -13 -12 -13 -11 -14 -10 -15 -10 -15 -9 -16 -8 -16 -7 -16 -7 -17 -6 -18 -5 -17 -4 -18 -3 -19 -3 -18 -1 -19 -1 -19 1 0 0 19 2 19 2 18 4 19 4 18 5 17 6 18 6 16 8 17 8 16 9 15 10 16 10 14 11 14 12 14 12 13 13 12 13 12 14 11 15 10 15 10 16 9 16 8 16 7 17 7 17 6 18 5 18 4 18 3 19 3 19 1 19 1 0 0zm372 -372l1 0 0 0 -1 19 -1 19 -2 18 -4 19 -4 18 -5 17 -6 18 -6 17 -8 16 -8 16 -9 16 -10 15 -10 15 -11 14 -12 13 -12 13 -13 13 -14 11 -14 11 -14 11 -16 9 -15 9 -16 9 -17 7 -17 7 -17 6 -18 5 -18 4 -18 3 -19 2 -19 2 -19 0 0 0 19 -1 19 -1 19 -3 18 -3 18 -4 18 -5 17 -6 17 -7 16 -7 16 -8 16 -9 15 -10 15 -10 14 -11 13 -12 13 -12 12 -13 12 -14 11 -14 11 -14 9 -16 9 -15 8 -16 8 -17 7 -16 5 -18 5 -17 5 -18 3 -19 2 -18 2 -19 0 -19 0 0zm-372 -372l0 -1 0 0 19 0 19 2 19 2 18 3 18 5 18 5 17 5 17 7 17 8 16 8 15 9 16 9 14 11 14 11 14 12 13 12 12 13 12 13 11 15 10 14 10 15 9 16 8 16 8 16 6 17 6 18 5 17 4 18 4 19 2 18 1 19 1 20 -1 0 0 -20 -2 -18 -2 -19 -3 -18 -5 -18 -5 -18 -5 -17 -7 -17 -8 -17 -8 -16 -9 -15 -9 -15 -11 -15 -11 -14 -12 -14 -12 -13 -13 -12 -13 -12 -14 -11 -15 -10 -15 -10 -16 -9 -16 -8 -16 -7 -17 -7 -17 -6 -18 -5 -18 -4 -18 -3 -19 -3 -19 -1 -19 0 0 0zm-372 372l-1 0 0 0 1 -20 1 -19 3 -18 3 -19 4 -18 5 -17 6 -18 7 -17 7 -16 8 -16 9 -16 10 -15 10 -14 11 -15 12 -13 12 -13 13 -12 14 -12 14 -11 15 -11 15 -9 15 -9 16 -8 17 -8 17 -7 17 -5 18 -5 18 -5 18 -3 19 -2 19 -2 19 0 0 1 -19 0 -19 1 -19 3 -18 3 -18 4 -18 5 -17 6 -17 7 -16 7 -16 8 -16 9 -15 10 -15 10 -14 11 -13 12 -13 12 -12 13 -12 14 -11 14 -10 15 -10 15 -9 15 -8 16 -8 17 -6 17 -6 17 -5 18 -4 18 -4 18 -2 19 -2 18 0 20 0 0z"/>
   </g>
   <g>
    <path class="fil2" d="M13968 9954l1755 0 0 815 -1755 0 0 -815zm0 14l0 787 1740 0 0 -787 -1740 0z"/>
    <path id="1" class="fil3" d="M15723 9969l-1755 0 0 -29 1755 0 15 14 -15 15zm0 -29l15 0 0 14 -15 -14zm-14 829l0 -815 29 0 0 815 -15 15 -14 -15zm29 0l0 15 -15 0 15 -15zm-1770 -14l1755 0 0 29 -1755 0 -14 -15 14 -14zm0 29l-14 0 0 -15 14 15zm15 -830l0 815 -29 0 0 -815 14 -14 15 14zm-29 0l0 -14 14 0 -14 14zm0 801l0 -787 29 0 0 787 -15 15 -14 -15zm14 15l-14 0 0 -15 14 15zm1740 0l-1740 0 0 -29 1740 0 15 14 -15 15zm15 -15l0 15 -15 0 15 -15zm0 -787l0 787 -29 0 0 -787 14 -14 15 14zm-15 -14l15 0 0 14 -15 -14zm-1740 0l1740 0 0 29 -1740 0 -14 -15 14 -14zm-14 14l0 -14 14 0 -14 14z"/>
   </g>
   <path class="fil4" d="M15064 10425l-102 0 0 -168 -45 0 0 207 147 0 0 -39zm161 39c-3,-8 -5,-22 -5,-41l0 -65c0,-32 -22,-49 -65,-49 -45,0 -68,17 -70,51l39 0c1,-8 4,-14 8,-18 5,-3 12,-5 21,-5 18,0 27,7 27,20 0,6 -2,10 -7,12 -5,2 -15,4 -29,6 -7,1 -12,2 -16,3 -3,0 -8,1 -14,3 -6,1 -11,3 -14,5 -4,2 -7,5 -11,8 -4,3 -7,7 -8,12 -2,5 -3,11 -3,17 0,14 5,25 14,34 10,8 23,12 40,12 20,0 36,-7 48,-19 1,5 2,10 3,14l42 0zm-45 -73l0 17c0,10 -3,19 -10,25 -7,6 -15,8 -27,8 -7,0 -12,-1 -16,-5 -4,-3 -6,-8 -6,-15 0,-6 2,-11 6,-15 4,-3 12,-5 24,-7 15,-2 24,-5 29,-8zm114 -134l-42 0 0 207 40 0 0 -19c10,16 26,23 47,23 20,0 36,-7 48,-22 12,-15 18,-34 18,-58 0,-23 -5,-41 -17,-56 -11,-14 -27,-22 -47,-22 -20,0 -36,8 -47,22l0 -75zm34 85c11,0 20,4 26,13 7,8 10,19 10,33 0,14 -3,26 -10,34 -6,9 -15,13 -26,13 -11,0 -20,-4 -26,-12 -7,-9 -10,-20 -10,-35 0,-14 3,-25 10,-34 6,-8 15,-12 26,-12zm230 16c-1,-17 -7,-29 -19,-37 -12,-8 -28,-12 -46,-12 -21,0 -38,4 -49,12 -12,8 -17,20 -17,35 0,3 0,7 1,10 0,4 2,7 4,9 1,3 3,5 5,7 1,2 4,4 7,5 3,2 6,3 8,5 1,1 5,2 9,3 4,1 7,2 9,2 2,1 5,2 10,3 4,0 7,1 9,2 0,0 1,0 2,0 12,3 20,5 25,8 4,2 6,6 6,12 0,5 -2,10 -7,13 -5,4 -12,5 -20,5 -20,0 -31,-8 -32,-25l-39 0c0,18 6,32 20,40 13,9 30,14 50,14 21,0 38,-5 51,-14 12,-9 18,-22 18,-37 0,-7 -1,-13 -4,-18 -2,-5 -5,-9 -9,-12 -3,-3 -8,-6 -14,-8 -6,-3 -11,-4 -15,-5 -4,-1 -10,-3 -17,-4 -1,0 -2,-1 -4,-1 -12,-2 -21,-5 -25,-7 -5,-2 -7,-6 -7,-11 0,-5 2,-9 6,-11 4,-3 9,-4 17,-4 9,0 15,1 20,5 4,3 7,8 8,16l39 0z"/>
   <path class="fil4" d="M14024 10823l-14 0 0 32 -38 0 0 -32 -14 0 0 81 14 0 0 -36 38 0 0 36 14 0 0 -81zm44 21c-9,0 -16,2 -22,8 -5,6 -8,13 -8,23 0,9 3,17 8,23 6,5 13,8 22,8 9,0 16,-3 22,-8 5,-6 8,-14 8,-23 0,-10 -3,-17 -8,-23 -6,-6 -13,-8 -22,-8zm0 10c5,0 9,2 12,5 3,4 5,9 5,16 0,6 -2,12 -5,15 -3,4 -7,6 -12,6 -5,0 -9,-2 -12,-6 -3,-3 -5,-9 -5,-15 0,-7 2,-12 5,-16 3,-3 7,-5 12,-5zm76 -10l-3 0c-9,0 -15,4 -19,13l0 -12 -13 0 0 59 13 0 0 -26c0,-14 6,-22 17,-22 1,0 3,0 5,1l0 -13zm21 1l-12 0 0 59 13 0 0 -34c0,-4 1,-8 3,-11 3,-3 6,-4 10,-4 4,0 7,1 8,3 1,2 2,5 2,9l0 37 13 0 0 -34c0,-5 1,-9 3,-11 2,-3 6,-4 10,-4 4,0 7,1 8,3 2,3 2,6 2,10l0 36 13 0 0 -42c0,-5 -2,-10 -5,-13 -4,-4 -8,-5 -14,-5 -8,0 -14,3 -19,10 -1,-3 -3,-6 -6,-8 -3,-1 -7,-2 -10,-2 -8,0 -14,3 -19,10l0 -9zm116 -1c-9,0 -16,2 -22,8 -5,6 -8,13 -8,23 0,9 3,17 8,23 6,5 13,8 22,8 9,0 16,-3 22,-8 5,-6 7,-14 7,-23 0,-10 -2,-17 -8,-23 -5,-6 -12,-8 -21,-8zm0 10c5,0 9,2 12,5 3,4 4,9 4,16 0,6 -1,12 -4,15 -3,4 -7,6 -12,6 -5,0 -9,-2 -12,-6 -3,-3 -5,-9 -5,-15 0,-7 2,-12 5,-16 3,-3 7,-5 12,-5zm55 -9l-12 0 0 59 13 0 0 -31c0,-12 4,-18 14,-18 2,0 4,0 6,1 2,1 3,2 4,3 0,2 1,4 1,5 0,2 0,4 0,6l0 34 13 0 0 -39c0,-7 -1,-12 -5,-16 -3,-4 -8,-5 -15,-5 -8,0 -14,3 -19,10l0 -9zm107 41l-12 0c-1,4 -3,6 -5,8 -2,2 -5,3 -9,3 -5,0 -9,-2 -12,-5 -2,-3 -4,-8 -4,-14l43 0 0 -1c0,-11 -2,-19 -7,-25 -5,-6 -12,-8 -21,-8 -8,0 -15,3 -20,9 -5,6 -8,13 -8,22 0,9 3,17 8,23 5,5 12,8 21,8 7,0 12,-2 17,-5 5,-4 8,-9 9,-15zm-12 -17l-30 0c1,-5 2,-9 5,-12 3,-2 6,-4 10,-4 5,0 8,2 11,5 2,2 4,6 4,11zm72 -7c0,-6 -2,-11 -7,-14 -5,-3 -11,-4 -18,-4 -7,0 -13,1 -17,4 -5,3 -7,8 -7,13 0,6 3,11 8,13 3,1 8,3 16,5 0,0 1,0 1,0 0,0 0,0 0,0l1 1c2,0 4,0 5,1 1,0 2,1 4,1 1,1 2,2 2,3 1,1 1,2 1,3 0,3 -1,5 -3,6 -3,2 -6,3 -9,3 -9,0 -14,-4 -15,-12l-12 0c0,7 3,12 7,16 5,3 11,5 19,5 8,0 14,-2 19,-5 5,-4 7,-8 7,-14 0,-3 -1,-5 -2,-7 -1,-2 -2,-4 -3,-5 -1,-1 -3,-2 -6,-3 -2,-1 -4,-2 -5,-2 -2,0 -4,-1 -7,-2 0,0 -1,0 -3,0 -1,0 -2,-1 -3,-1 0,0 -1,0 -2,0 -1,-1 -2,-1 -2,-1 0,0 -1,-1 -2,-1 0,0 -1,0 -1,-1 0,0 -1,0 -1,-1 0,0 -1,-1 -1,-1 0,-1 0,-1 0,-2 0,-2 1,-4 3,-5 2,-1 4,-2 8,-2 7,0 12,3 12,9l13 0zm144 -39l27 81 16 0 28 -81 -14 0 -21 64 -21 -64 -15 0zm94 -1l-13 0 0 13 13 0 0 -13zm0 23l-13 0 0 59 13 0 0 -59zm45 0l-12 0 0 -17 -13 0 0 17 -10 0 0 10 10 0 0 28 0 1 0 0 0 1 0 5c0,1 0,2 0,4 0,2 1,3 1,4 0,1 1,2 2,3 1,1 1,2 3,2 1,1 2,1 4,1 2,1 4,1 6,1 3,0 6,0 9,-1l0 -10c-2,0 -3,0 -6,0 -1,0 -2,0 -3,0 -1,0 -2,-1 -2,-2 -1,-1 -1,-2 -1,-2 0,-1 0,-2 0,-4l0 -31 12 0 0 -10zm10 18l13 0c0,-3 1,-6 3,-8 2,-1 5,-2 10,-2 8,0 12,3 12,9 0,2 0,3 -1,4 -1,1 -2,2 -3,2 -2,0 -5,1 -10,2 -2,0 -3,0 -4,0 -1,0 -2,0 -4,1 -2,0 -3,0 -4,1 -1,0 -2,0 -4,1 -1,0 -2,1 -3,1 -1,1 -2,2 -3,3 -1,1 -2,2 -2,3 -1,1 -1,2 -2,3 0,2 0,4 0,5 0,6 2,10 5,13 4,3 9,5 15,5 8,0 15,-3 20,-7 1,4 4,7 10,7 2,0 5,-1 8,-1l0 -10c-1,1 -2,1 -3,1 -1,0 -2,-1 -2,-1 -1,-1 -1,-2 -1,-4l0 -30c0,-6 -2,-10 -6,-13 -5,-3 -11,-5 -18,-5 -16,0 -24,7 -26,20zm38 12l0 7c0,5 -1,8 -3,10 -3,3 -7,5 -13,5 -4,0 -6,-1 -8,-3 -2,-1 -3,-3 -3,-6 0,-2 0,-3 1,-4 0,-1 1,-2 2,-3 1,-1 2,-1 3,-2 1,0 2,0 3,0 1,-1 2,-1 4,-1 1,0 2,0 3,-1 2,0 3,0 4,0 1,0 2,0 3,-1 2,0 3,-1 4,-1zm41 -30l-13 0 0 59 13 0 0 -34c0,-4 2,-8 4,-11 2,-3 5,-4 10,-4 4,0 6,1 8,3 1,2 1,5 1,9l0 37 13 0 0 -34c0,-5 2,-9 4,-11 2,-3 5,-4 9,-4 4,0 7,1 9,3 1,3 2,6 2,10l0 36 13 0 0 -42c0,-5 -2,-10 -6,-13 -3,-4 -8,-5 -13,-5 -8,0 -15,3 -19,10 -2,-3 -4,-6 -7,-8 -3,-1 -6,-2 -10,-2 -7,0 -13,3 -18,10l0 -9zm102 -23l-13 0 0 13 13 0 0 -13zm0 23l-13 0 0 59 13 0 0 -59zm28 0l-12 0 0 59 13 0 0 -31c0,-12 5,-18 14,-18 3,0 5,0 6,1 2,1 3,2 4,3 1,2 1,4 1,5 1,2 1,4 1,6l0 34 13 0 0 -39c0,-7 -2,-12 -5,-16 -4,-4 -9,-5 -15,-5 -8,0 -15,3 -20,10l0 -9zm102 17c0,-6 -2,-11 -7,-14 -5,-3 -10,-4 -18,-4 -7,0 -13,1 -17,4 -5,3 -7,8 -7,13 0,6 3,11 8,13 3,1 8,3 16,5 1,0 1,0 1,0 0,0 0,0 1,0l0 1c2,0 4,0 5,1 1,0 2,1 4,1 1,1 2,2 2,3 1,1 1,2 1,3 0,3 -1,5 -3,6 -2,2 -6,3 -9,3 -9,0 -14,-4 -15,-12l-12 0c0,7 3,12 7,16 5,3 11,5 19,5 8,0 14,-2 19,-5 5,-4 7,-8 7,-14 0,-3 0,-5 -1,-7 -2,-2 -3,-4 -4,-5 -1,-1 -3,-2 -5,-3 -3,-1 -5,-2 -6,-2 -2,0 -4,-1 -7,-2 0,0 -1,0 -3,0 -1,0 -2,-1 -2,-1 -1,0 -2,0 -3,0 -1,-1 -1,-1 -2,-1 0,0 -1,-1 -2,-1 0,0 -1,0 -1,-1 0,0 -1,0 -1,-1 0,0 0,-1 -1,-1 0,-1 0,-1 0,-2 0,-2 1,-4 3,-5 2,-1 4,-2 8,-2 7,0 12,3 12,9l13 0zm146 -39l21 81 15 0 17 -62 16 62 14 0 23 -81 -15 0 -15 62 -16 -62 -14 0 -17 62 -15 -62 -14 0zm166 63l-13 0c-1,4 -3,6 -5,8 -2,2 -5,3 -9,3 -5,0 -9,-2 -11,-5 -3,-3 -5,-8 -5,-14l44 0 0 -1c0,-11 -3,-19 -8,-25 -5,-6 -12,-8 -20,-8 -9,0 -15,3 -21,9 -5,6 -8,13 -8,22 0,9 3,17 8,23 5,5 12,8 21,8 7,0 13,-2 17,-5 5,-4 8,-9 10,-15zm-12 -17l-31 0c1,-5 3,-9 5,-12 3,-2 6,-4 11,-4 4,0 7,2 10,5 3,2 4,6 5,11zm38 -46l-13 0 0 81 13 0 0 -81zm29 0l-12 0 0 81 12 0 0 -81zm29 22l-12 0 0 59 13 0 0 -31c0,-12 4,-18 14,-18 3,0 5,0 6,1 2,1 3,2 4,3 0,2 1,4 1,5 0,2 0,4 0,6l0 34 13 0 0 -39c0,-7 -1,-12 -5,-16 -3,-4 -8,-5 -15,-5 -8,0 -14,3 -19,10l0 -9zm108 41l-13 0c-1,4 -3,6 -5,8 -2,2 -5,3 -9,3 -5,0 -9,-2 -12,-5 -2,-3 -4,-8 -4,-14l43 0 0 -1c0,-11 -2,-19 -7,-25 -5,-6 -12,-8 -20,-8 -9,0 -16,3 -21,9 -5,6 -8,13 -8,22 0,9 3,17 8,23 5,5 12,8 21,8 7,0 12,-2 17,-5 5,-4 8,-9 10,-15zm-13 -17l-30 0c1,-5 3,-9 5,-12 3,-2 6,-4 10,-4 5,0 8,2 11,5 3,2 4,6 4,11zm72 -7c0,-6 -2,-11 -7,-14 -5,-3 -10,-4 -18,-4 -7,0 -13,1 -17,4 -5,3 -7,8 -7,13 0,6 3,11 8,13 3,1 8,3 16,5 1,0 1,0 1,0 0,0 0,0 1,0l0 1c2,0 4,0 5,1 1,0 2,1 4,1 1,1 2,2 3,3 0,1 0,2 0,3 0,3 -1,5 -3,6 -2,2 -5,3 -9,3 -9,0 -14,-4 -14,-12l-13 0c0,7 3,12 7,16 5,3 11,5 20,5 7,0 14,-2 18,-5 5,-4 7,-8 7,-14 0,-3 0,-5 -1,-7 -1,-2 -3,-4 -4,-5 -1,-1 -3,-2 -5,-3 -3,-1 -5,-2 -6,-2 -2,0 -4,-1 -7,-2 0,0 -1,0 -3,0 -1,0 -2,-1 -2,-1 -1,0 -2,0 -3,0 -1,-1 -1,-1 -2,-1 0,0 -1,-1 -1,-1 -1,0 -2,0 -2,-1 0,0 0,0 -1,-1 0,0 0,-1 0,-1 -1,-1 -1,-1 -1,-2 0,-2 1,-4 3,-5 2,-1 4,-2 8,-2 8,0 12,3 13,9l12 0zm61 0c0,-6 -2,-11 -7,-14 -4,-3 -10,-4 -17,-4 -8,0 -14,1 -18,4 -4,3 -6,8 -6,13 0,6 2,11 8,13 2,1 7,3 16,5 0,0 0,0 0,0 0,0 1,0 1,0l0 1c2,0 4,0 5,1 1,0 3,1 4,1 1,1 2,2 3,3 0,1 1,2 1,3 0,3 -2,5 -4,6 -2,2 -5,3 -9,3 -9,0 -14,-4 -14,-12l-13 0c1,7 3,12 7,16 5,3 11,5 20,5 7,0 14,-2 18,-5 5,-4 7,-8 7,-14 0,-3 0,-5 -1,-7 -1,-2 -2,-4 -4,-5 -1,-1 -3,-2 -5,-3 -3,-1 -5,-2 -6,-2 -1,0 -4,-1 -6,-2 -1,0 -2,0 -3,0 -2,0 -3,-1 -3,-1 -1,0 -2,0 -3,0 -1,-1 -1,-1 -2,-1 0,0 -1,-1 -1,-1 -1,0 -1,0 -2,-1 0,0 0,0 -1,-1 0,0 0,-1 0,-1 0,-1 -1,-1 -1,-2 0,-2 1,-4 3,-5 2,-1 5,-2 8,-2 8,0 12,3 13,9l12 0z"/>
   <circle class="fil4" cx="15193" cy="10864" r="16"/>
   <circle class="fil4" cx="14580" cy="10864" r="16"/>
  </g>
 </g>
</svg>
