<?xml version="1.0" encoding="UTF-8"?>
<!DOCTYPE svg PUBLIC "-//W3C//DTD SVG 1.1//EN" "http://www.w3.org/Graphics/SVG/1.1/DTD/svg11.dtd">
<!-- Creator: CorelDRAW X7 -->
<svg xmlns="http://www.w3.org/2000/svg" xml:space="preserve" width="297mm" height="210mm" version="1.1" style="shape-rendering:geometricPrecision; text-rendering:geometricPrecision; image-rendering:optimizeQuality; fill-rule:evenodd; clip-rule:evenodd"
viewBox="0 0 29700 21000"
 xmlns:xlink="http://www.w3.org/1999/xlink">
 <defs>
  <style type="text/css">
   <![CDATA[
    .fil0 {fill:#2B2A29}
    .fil4 {fill:#352999}
    .fil2 {fill:#E02029}
    .fil3 {fill:#E02029;fill-rule:nonzero}
    .fil1 {fill:#352999}
   ]]>
  </style>
 </defs>
 <g id="Layer_x0020_1">
  <metadata id="CorelCorpID_0Corel-Layer"/>
  <g id="_759720864">
   <path class="fil0" d="M7800 13553l-46 0c-78,88 -116,179 -116,274 0,60 11,116 34,168l39 0c-14,-43 -21,-92 -21,-147 0,-104 36,-202 110,-295zm280 5l-233 0 -72 346 60 0 31 -151 152 0 10 -48 -152 0 20 -97 173 0 11 -50zm241 195c0,-35 -9,-61 -28,-80 -19,-18 -46,-27 -79,-27 -41,0 -74,15 -101,44 -27,30 -40,67 -40,113 0,34 10,61 29,80 19,19 46,29 80,29 43,0 76,-16 102,-47 25,-31 37,-68 37,-112zm-110 -65c18,0 32,6 42,17 10,12 15,28 15,47 0,33 -8,61 -24,84 -16,22 -36,34 -59,34 -18,0 -33,-6 -43,-18 -10,-12 -15,-28 -15,-49 0,-32 8,-59 24,-82 17,-22 36,-33 60,-33zm338 -40c-6,-1 -12,-1 -19,-1 -35,0 -63,19 -86,56l11 -50 -51 0 -52 251 54 0 24 -111c13,-62 42,-93 86,-93 7,0 15,1 22,2l11 -54zm93 5l-52 0 -52 251 55 0 30 -144c4,-20 13,-36 26,-49 14,-13 29,-19 47,-19 9,0 17,3 22,8 6,5 9,12 9,21 0,7 -2,20 -6,38l-30 145 55 0 30 -145c4,-20 13,-36 26,-48 13,-12 27,-18 44,-18 10,0 18,3 24,8 6,5 9,12 9,21 0,8 -1,21 -5,37l-29 145 54 0 30 -147c5,-23 8,-41 8,-52 0,-17 -7,-31 -20,-41 -13,-11 -29,-17 -49,-17 -34,0 -62,15 -87,45 -7,-31 -27,-46 -62,-46 -17,0 -32,4 -47,12 -16,9 -28,19 -39,33l9 -38zm562 173l-53 0c-12,30 -32,45 -61,45 -18,0 -33,-5 -43,-17 -11,-11 -16,-26 -16,-46 0,-1 0,-6 1,-15l183 0c2,-15 3,-28 3,-39 0,-34 -9,-60 -27,-79 -19,-19 -44,-29 -76,-29 -39,0 -71,15 -97,45 -26,29 -39,67 -39,111 0,34 9,61 28,81 19,20 45,30 79,30 29,0 55,-8 76,-23 22,-14 36,-36 42,-64zm-166 -71c6,-21 15,-38 28,-50 13,-11 29,-17 47,-17 17,0 31,5 40,15 9,11 14,26 14,45l0 7 -129 0zm402 -107c-6,-1 -12,-1 -19,-1 -35,0 -64,19 -86,56l11 -50 -51 0 -52 251 53 0 24 -111c14,-62 42,-93 86,-93 8,0 15,1 22,2l12 -54zm113 -90l-54 0 -72 346 54 0 72 -346zm252 95l-58 0 -57 113c-14,28 -26,55 -37,82 -2,-27 -6,-59 -12,-98l-14 -97 -56 0 42 236 -9 24c-2,5 -4,9 -6,12 -1,4 -4,8 -7,14 -4,5 -8,9 -13,12 -5,3 -10,4 -16,4 -8,0 -17,-1 -27,-3l-9 45c11,2 22,4 33,4 21,0 38,-5 52,-15 15,-10 28,-27 41,-51l153 -282zm547 -95l-279 0 -10 50 111 0 -61 296 59 0 61 -296 109 0 10 -50zm93 0l-53 0 -72 346 53 0 27 -131c5,-23 14,-42 28,-58 13,-15 30,-23 51,-23 26,0 38,12 38,35 0,7 -1,19 -4,33l-30 144 55 0 31 -151c3,-18 5,-31 5,-42 0,-19 -6,-35 -19,-47 -13,-11 -31,-17 -52,-17 -34,0 -62,14 -86,42l28 -131zm413 95l-58 0 -57 113c-14,28 -26,55 -37,82 -2,-27 -6,-59 -12,-98l-14 -97 -56 0 41 236 -9 24c-2,5 -3,9 -5,12 -2,4 -4,8 -8,14 -3,5 -7,9 -12,12 -5,3 -10,4 -16,4 -8,0 -17,-1 -27,-3l-9 45c10,2 22,4 33,4 20,0 38,-5 52,-15 15,-10 28,-27 41,-51l153 -282zm190 -5c-6,-1 -12,-1 -19,-1 -35,0 -64,19 -86,56l11 -50 -51 0 -52 251 54 0 23 -111c14,-62 42,-93 87,-93 7,0 15,1 22,2l11 -54zm248 105c0,-35 -9,-61 -28,-80 -19,-18 -46,-27 -79,-27 -41,0 -75,15 -101,44 -27,30 -40,67 -40,113 0,34 10,61 29,80 19,19 46,29 80,29 42,0 76,-16 101,-47 26,-31 38,-68 38,-112zm-110 -65c18,0 32,6 42,17 10,12 14,28 14,47 0,33 -7,61 -23,84 -16,22 -36,34 -59,34 -18,0 -33,-6 -43,-18 -10,-12 -15,-28 -15,-49 0,-32 8,-59 24,-82 16,-22 36,-33 60,-33zm382 130l-54 0c-5,16 -13,29 -24,38 -10,9 -23,13 -37,13 -37,0 -56,-22 -56,-66 0,-18 3,-36 8,-52 5,-17 15,-32 28,-44 13,-12 28,-18 47,-18 15,0 27,4 35,12 9,8 13,19 13,33l0 2 53 0 0 -3c0,-26 -9,-47 -27,-63 -18,-16 -42,-24 -72,-24 -42,0 -76,16 -101,46 -26,31 -38,68 -38,111 0,35 9,61 27,80 19,19 45,29 79,29 30,0 56,-8 76,-25 20,-16 35,-39 43,-69zm65 -89l51 0c7,-28 27,-41 59,-41 30,0 45,10 45,31 0,14 -5,24 -13,29 -4,3 -9,5 -16,6 -8,1 -14,2 -19,3 -6,0 -13,0 -22,1 -8,0 -13,1 -14,1 -18,1 -34,4 -49,9 -14,6 -27,15 -38,27 -11,13 -16,29 -16,48 0,21 7,38 21,51 14,12 32,19 56,19 33,0 60,-12 82,-34 1,12 5,20 12,25 6,4 15,7 28,7 10,0 22,-2 35,-6l9 -41c-10,2 -17,3 -21,3 -7,0 -11,-3 -11,-10 0,-3 2,-12 5,-28l17 -76c4,-18 6,-33 6,-44 0,-19 -8,-34 -25,-45 -17,-11 -40,-17 -69,-17 -65,0 -103,27 -113,82zm144 51l-11 42c-4,14 -11,26 -22,36 -12,10 -27,16 -46,16 -13,0 -24,-4 -31,-10 -8,-6 -11,-15 -11,-26 0,-26 17,-41 52,-44l13 -1c10,-1 17,-2 22,-2 5,-1 11,-2 18,-4 7,-2 13,-4 16,-7zm294 -132c-6,-1 -12,-1 -19,-1 -35,0 -63,19 -86,56l11 -50 -51 0 -52 251 54 0 24 -111c13,-62 42,-93 86,-93 7,0 15,1 22,2l11 -54zm223 178l-54 0c-11,30 -31,45 -61,45 -18,0 -32,-5 -42,-17 -11,-11 -16,-26 -16,-46 0,-1 0,-6 1,-15l183 0c2,-15 3,-28 3,-39 0,-34 -9,-60 -28,-79 -18,-19 -43,-29 -75,-29 -39,0 -71,15 -97,45 -27,29 -40,67 -40,111 0,34 10,61 29,81 19,20 45,30 79,30 29,0 55,-8 76,-23 22,-14 36,-36 42,-64zm-166 -71c5,-21 15,-38 28,-50 13,-11 29,-17 47,-17 17,0 31,5 40,15 9,11 14,26 14,45l0 7 -129 0zm781 -36l-146 0 -10 47 93 0c-16,66 -52,98 -107,98 -29,0 -51,-8 -66,-26 -16,-17 -24,-42 -24,-74 0,-27 4,-53 13,-77 9,-24 24,-45 44,-61 20,-17 43,-25 71,-25 24,0 43,6 57,17 13,11 21,28 22,50l58 0c0,-38 -13,-68 -39,-88 -25,-19 -57,-29 -96,-29 -58,0 -105,20 -138,61 -34,40 -51,91 -51,151 0,46 12,83 36,110 25,27 59,40 103,40 43,0 78,-15 103,-45l0 36 38 0 39 -185zm291 -66l-54 0 -28 133c-4,22 -13,41 -25,57 -13,16 -29,24 -49,24 -13,0 -22,-3 -29,-9 -7,-5 -11,-13 -11,-23 0,-9 3,-25 8,-49l28 -133 -55 0 -32 152c-3,17 -5,31 -5,41 0,20 7,36 20,48 13,12 31,18 53,18 35,0 63,-15 84,-45l-9 37 52 0 52 -251zm143 -95l-54 0 -72 346 54 0 72 -346zm165 95l-48 0 3 -11c0,-1 0,-1 0,-2 1,-1 1,-1 1,-2 0,0 0,-1 0,-2 2,-7 4,-12 5,-15 1,-3 3,-7 6,-12 3,-4 6,-7 11,-9 5,-1 11,-2 18,-2 6,0 13,1 20,2l9 -42c-16,-3 -29,-4 -40,-4 -24,0 -41,6 -53,17 -12,12 -20,28 -25,48l-8 34 -41 0 -9 40 41 0 -44 211 55 0 43 -211 48 0 8 -40zm363 -95l-60 0 -72 346 233 0 10 -51 -173 0 62 -295zm176 171l51 0c7,-28 27,-41 59,-41 30,0 45,10 45,31 0,14 -5,24 -13,29 -4,3 -9,5 -16,6 -8,1 -14,2 -19,3 -6,0 -13,0 -22,1 -8,0 -13,1 -14,1 -18,1 -34,4 -49,9 -14,6 -27,15 -38,27 -11,13 -16,29 -16,48 0,21 7,38 21,51 14,12 33,19 56,19 33,0 60,-12 83,-34 1,12 4,20 11,25 6,4 16,7 28,7 10,0 22,-2 35,-6l9 -41c-10,2 -17,3 -21,3 -7,0 -11,-3 -11,-10 0,-3 2,-12 5,-28l17 -76c4,-18 6,-33 6,-44 0,-19 -8,-34 -25,-45 -17,-11 -40,-17 -69,-17 -65,0 -103,27 -113,82zm144 51l-11 42c-4,14 -11,26 -22,36 -12,10 -27,16 -46,16 -13,0 -24,-4 -31,-10 -7,-6 -11,-15 -11,-26 0,-26 17,-41 52,-44l14 -1c9,-1 16,-2 21,-2 5,-1 11,-2 18,-4 7,-2 13,-4 16,-7zm222 -222l-53 0 -73 346 51 0 9 -43c11,34 38,50 81,50 39,0 70,-16 93,-48 24,-33 35,-70 35,-111 0,-33 -8,-58 -25,-77 -16,-19 -39,-28 -68,-28 -30,0 -55,12 -75,36l25 -125zm33 132c18,0 33,5 42,17 9,12 14,28 14,47 0,32 -8,59 -24,81 -17,22 -36,33 -59,33 -18,0 -31,-5 -41,-16 -11,-11 -16,-26 -16,-45 0,-29 8,-56 22,-80 15,-25 35,-37 62,-37zm402 63c0,-35 -9,-61 -28,-80 -19,-18 -46,-27 -79,-27 -41,0 -75,15 -101,44 -27,30 -40,67 -40,113 0,34 10,61 29,80 19,19 46,29 80,29 43,0 76,-16 101,-47 26,-31 38,-68 38,-112zm-110 -65c18,0 32,6 42,17 10,12 15,28 15,47 0,33 -8,61 -24,84 -16,22 -36,34 -59,34 -18,0 -33,-6 -43,-18 -10,-12 -15,-28 -15,-49 0,-32 8,-59 24,-82 17,-22 36,-33 60,-33zm338 -40c-6,-1 -12,-1 -19,-1 -35,0 -63,19 -86,56l11 -50 -51 0 -52 251 54 0 24 -111c13,-62 42,-93 86,-93 7,0 15,1 22,2l11 -54zm20 81l52 0c6,-28 26,-41 59,-41 29,0 44,10 44,31 0,14 -4,24 -13,29 -3,3 -9,5 -16,6 -7,1 -14,2 -19,3 -5,0 -12,0 -21,1 -9,0 -14,1 -14,1 -18,1 -35,4 -49,9 -15,6 -28,15 -38,27 -11,13 -17,29 -17,48 0,21 7,38 21,51 14,12 33,19 56,19 33,0 61,-12 83,-34 1,12 5,20 11,25 7,4 16,7 28,7 10,0 22,-2 36,-6l8 -41c-9,2 -16,3 -21,3 -7,0 -11,-3 -11,-10 0,-3 2,-12 6,-28l16 -76c4,-18 7,-33 7,-44 0,-19 -9,-34 -26,-45 -17,-11 -40,-17 -69,-17 -65,0 -103,27 -113,82zm144 51l-11 42c-3,14 -11,26 -22,36 -11,10 -26,16 -45,16 -14,0 -24,-4 -32,-10 -7,-6 -11,-15 -11,-26 0,-26 17,-41 52,-44l14 -1c9,-1 17,-2 22,-2 5,-1 11,-2 18,-4 7,-2 12,-4 15,-7zm265 -127l-49 0 16 -75 -54 0 -16 75 -42 0 -9 40 42 0 -26 126c-4,20 -7,34 -7,42 0,30 21,46 61,46 13,0 25,-1 36,-3l9 -44c-10,2 -18,2 -26,2 -16,0 -23,-5 -23,-16 0,-5 1,-15 4,-29l27 -124 48 0 9 -40zm260 100c0,-35 -9,-61 -28,-80 -19,-18 -46,-27 -79,-27 -41,0 -75,15 -101,44 -27,30 -40,67 -40,113 0,34 10,61 29,80 19,19 46,29 80,29 42,0 76,-16 101,-47 26,-31 38,-68 38,-112zm-110 -65c18,0 32,6 42,17 10,12 15,28 15,47 0,33 -8,61 -24,84 -16,22 -36,34 -59,34 -18,0 -33,-6 -43,-18 -10,-12 -15,-28 -15,-49 0,-32 8,-59 24,-82 16,-22 36,-33 60,-33zm338 -40c-6,-1 -12,-1 -19,-1 -35,0 -63,19 -86,56l11 -50 -51 0 -52 251 54 0 24 -111c13,-62 42,-93 86,-93 7,0 15,1 22,2l11 -54zm94 5l-55 0 -52 251 55 0 52 -251zm20 -97l-54 0 -12 55 54 0 12 -55zm233 270l-54 0c-11,30 -32,45 -61,45 -18,0 -32,-5 -43,-17 -10,-11 -16,-26 -16,-46 0,-1 1,-6 1,-15l183 0c2,-15 4,-28 4,-39 0,-34 -10,-60 -28,-79 -19,-19 -44,-29 -76,-29 -39,0 -71,15 -97,45 -26,29 -39,67 -39,111 0,34 9,61 28,81 19,20 45,30 79,30 30,0 55,-8 77,-23 21,-14 35,-36 42,-64zm-167 -71c6,-21 15,-38 28,-50 14,-11 29,-17 47,-17 18,0 31,5 40,15 9,11 14,26 14,45l0 7 -129 0zm429 -28l0 -6c0,-23 -8,-42 -25,-55 -16,-13 -40,-20 -69,-20 -31,0 -56,7 -74,21 -19,14 -28,32 -28,56 0,8 2,16 4,23 3,7 6,13 10,17 4,4 9,9 17,13 7,4 13,7 18,9 4,2 11,4 20,8 1,0 2,0 3,1 23,8 38,15 46,20 7,5 11,12 11,22 0,11 -5,19 -14,26 -9,6 -21,9 -36,9 -37,0 -56,-15 -56,-46l0 -1 -51 0 0 5c0,26 9,46 27,61 18,14 43,22 76,22 29,0 54,-7 76,-21 21,-14 31,-35 31,-64 0,-31 -20,-54 -62,-68 -2,-1 -6,-2 -11,-4 -20,-7 -34,-13 -43,-18 -9,-5 -13,-12 -13,-21 0,-10 4,-17 12,-22 7,-6 18,-8 32,-8 16,0 28,3 36,9 8,6 12,16 12,32l51 0zm734 -169l-61 0 -62 146c-22,51 -40,96 -54,136 2,-20 1,-65 -3,-135l-10 -147 -60 0 -71 160c-22,48 -39,90 -51,123 1,-22 1,-63 -1,-122l-6 -161 -59 0 22 346 62 0 76 -168c14,-33 30,-70 46,-113 0,38 1,70 2,97l12 184 61 0 157 -346zm20 281l-66 0 -14 65 66 0 14 -65zm195 -281l-59 0 -73 346 233 0 11 -51 -173 0 61 -295zm228 281l-66 0 -14 65 66 0 14 -65zm196 -281l-60 0 -72 346 233 0 10 -51 -173 0 62 -295zm267 163c0,-60 -12,-116 -34,-168l-39 0c14,43 21,92 21,147 0,104 -37,202 -111,295l46 0c78,-88 117,-179 117,-274z"/>
   <path class="fil1" d="M10725 9370l126 262 203 420 199 -411 131 -270 126 262 453 937 -260 0 -324 -670 -201 408 -128 262 -6 0 -121 -247 -206 -419 -327 666 -246 0 447 -923 134 -277zm-267 8l-465 946 -121 246 -2 0 -121 -246 -469 -953 4 -7 237 0 350 712 350 -712 230 0 7 14zm-1320 281l449 911 -245 0 -326 -663 0 -1 0 1 -218 443 190 -5 111 225 -409 0 -284 0 468 -952 122 -248 142 289z"/>
   <g>
    <path class="fil2" d="M12562 7723l0 4487 -4754 0 0 -4487 4754 0zm-4649 2244c0,1214 985,2199 2199,2199 1214,0 2199,-985 2199,-2199 0,-1215 -985,-2199 -2199,-2199 -1214,0 -2199,984 -2199,2199z"/>
    <path id="1" class="fil3" d="M12560 12210l0 -4487 4 0 0 4487 -2 2 -2 -2zm4 0l0 2 -2 0 2 -2zm-4756 -3l4754 0 0 5 -4754 0 -3 -2 3 -3zm0 5l-3 0 0 -2 3 2zm2 -4489l0 4487 -5 0 0 -4487 3 -2 2 2zm-5 0l0 -2 3 0 -3 2zm4757 3l-4754 0 0 -5 4754 0 2 2 -2 3zm0 -5l2 0 0 2 -2 -2zm-2450 4442l0 5 0 0 -113 -3 -112 -9 -110 -14 -109 -19 -106 -25 -105 -29 -102 -35 -100 -39 -97 -44 -95 -49 -92 -53 -90 -57 -86 -62 -83 -65 -80 -69 -76 -73 -73 -76 -70 -80 -65 -83 -61 -87 -58 -89 -53 -92 -48 -95 -44 -98 -40 -100 -34 -102 -30 -104 -24 -107 -20 -108 -14 -110 -8 -112 -3 -113 4 0 3 113 9 111 14 110 19 108 24 107 30 104 35 102 39 100 44 97 48 95 53 92 57 89 62 86 65 83 69 80 73 76 76 73 80 69 83 65 86 61 89 57 92 53 95 49 97 44 100 39 102 35 104 29 106 25 108 19 110 14 112 8 113 3 0 0zm2197 -2196l4 0 0 0 -3 113 -8 112 -14 110 -20 108 -24 107 -30 104 -34 102 -40 100 -44 98 -48 95 -53 92 -58 89 -61 87 -65 83 -70 80 -73 76 -76 73 -80 69 -83 65 -86 62 -90 57 -92 53 -95 49 -97 44 -100 39 -102 35 -105 29 -106 25 -109 19 -110 14 -112 9 -113 3 0 -5 113 -3 112 -8 110 -14 108 -19 106 -25 104 -29 102 -35 100 -39 97 -44 95 -49 92 -53 89 -57 86 -61 83 -65 80 -69 76 -73 73 -76 69 -80 65 -83 62 -86 57 -89 53 -92 48 -95 44 -97 39 -100 35 -102 30 -104 24 -107 19 -108 14 -110 9 -111 3 -113 0 0zm-2197 -2197l0 -5 0 0 113 3 112 9 110 14 109 19 106 25 105 29 102 35 100 39 97 44 95 49 92 53 90 57 86 62 83 65 80 69 76 73 73 77 70 79 65 84 61 86 58 89 53 92 48 95 44 98 40 100 34 102 30 104 24 107 20 108 14 111 8 111 3 114 -4 0 -3 -113 -9 -112 -14 -110 -19 -108 -24 -106 -30 -105 -35 -102 -39 -99 -44 -98 -48 -94 -53 -92 -57 -90 -62 -86 -65 -83 -69 -79 -73 -77 -76 -72 -80 -70 -83 -65 -86 -61 -89 -57 -92 -53 -95 -49 -97 -44 -100 -39 -102 -34 -104 -30 -106 -25 -108 -19 -110 -14 -112 -8 -113 -3 0 0zm-2197 2197l-4 0 0 0 3 -114 8 -111 14 -111 20 -108 24 -107 30 -104 34 -102 40 -100 44 -98 48 -95 53 -92 58 -89 61 -86 65 -84 70 -79 73 -77 76 -73 80 -69 83 -65 86 -62 90 -57 92 -53 95 -49 97 -44 100 -39 102 -35 105 -29 106 -25 109 -19 110 -14 112 -9 113 -3 0 5 -113 3 -112 8 -110 14 -108 19 -106 25 -104 30 -102 34 -100 39 -97 44 -95 49 -92 53 -89 57 -86 61 -83 65 -80 70 -76 72 -73 77 -69 79 -65 83 -62 86 -57 90 -53 92 -48 94 -44 98 -39 99 -35 102 -30 105 -24 106 -19 108 -14 110 -9 112 -3 113 0 0z"/>
   </g>
   <g>
    <path class="fil2" d="M7735 7555l10360 0 0 4813 -10360 0 0 -4813zm0 83l0 4647 10272 0 0 -4647 -10272 0z"/>
    <path id="1" class="fil3" d="M18095 7641l-10360 0 0 -171 10360 0 85 85 -85 86zm0 -171l85 0 0 85 -85 -85zm-85 4898l0 -4813 170 0 0 4813 -85 86 -85 -86zm170 0l0 86 -85 0 85 -86zm-10445 -85l10360 0 0 171 -10360 0 -86 -86 86 -85zm0 171l-86 0 0 -86 86 86zm85 -4899l0 4813 -171 0 0 -4813 86 -85 85 85zm-171 0l0 -85 86 0 -86 85zm0 4730l0 -4647 171 0 0 4647 -85 86 -86 -86zm86 86l-86 0 0 -86 86 86zm10272 0l-10272 0 0 -171 10272 0 85 85 -85 86zm85 -86l0 86 -85 0 85 -86zm0 -4647l0 4647 -171 0 0 -4647 86 -85 85 85zm-85 -85l85 0 0 85 -85 -85zm-10272 0l10272 0 0 170 -10272 0 -86 -85 86 -85zm-86 85l0 -85 86 0 -86 85z"/>
   </g>
   <path class="fil4" d="M14202 10336l-599 0 0 -995 -268 0 0 1226 867 0 0 -231zm954 231c-21,-48 -31,-129 -31,-241l0 -384c0,-193 -129,-289 -387,-289 -261,0 -398,100 -412,299l229 0c8,-50 25,-85 52,-105 26,-21 67,-31 124,-31 106,0 160,40 160,119 0,35 -15,58 -44,71 -29,12 -87,24 -173,36 -39,4 -70,9 -91,13 -22,4 -51,10 -86,18 -36,8 -64,18 -84,31 -20,12 -41,29 -64,48 -22,20 -38,44 -48,72 -9,29 -14,62 -14,100 0,84 28,150 84,197 56,48 134,72 232,72 117,0 213,-38 288,-112 3,34 9,63 17,86l248 0zm-267 -432l0 100c0,62 -20,110 -59,145 -40,35 -92,53 -158,53 -42,0 -75,-11 -99,-32 -23,-22 -35,-50 -35,-87 0,-38 13,-68 38,-90 22,-17 69,-31 141,-43 86,-13 143,-29 172,-46zm669 -794l-242 0 0 1226 232 0 -2 -112c64,91 156,136 279,136 117,0 212,-44 285,-132 73,-88 109,-203 109,-345 0,-132 -34,-241 -101,-327 -68,-86 -161,-129 -279,-129 -118,0 -212,43 -281,129l0 -446zm205 505c63,0 114,24 153,74 38,49 57,114 57,196 0,85 -19,152 -57,203 -39,50 -90,76 -153,76 -66,0 -118,-25 -156,-74 -38,-50 -57,-117 -57,-203 0,-84 19,-150 58,-199 38,-49 90,-73 155,-73zm1356 91c-3,-98 -40,-169 -111,-215 -72,-46 -163,-69 -274,-69 -124,0 -220,23 -287,70 -68,48 -102,115 -102,202 0,23 2,44 6,64 4,19 11,37 22,52 11,15 21,29 30,40 10,12 24,23 43,32 19,10 34,18 45,24 12,7 30,13 54,20 25,7 43,12 54,15 11,3 30,7 57,13 28,5 46,9 54,12 3,1 8,2 14,3 71,16 119,31 146,45 26,14 39,37 39,71 0,33 -14,59 -43,80 -30,20 -69,30 -118,30 -118,0 -182,-50 -190,-148l-232 0c1,106 41,186 119,237 78,52 177,78 298,78 126,0 225,-27 297,-81 73,-54 109,-128 109,-221 0,-39 -8,-73 -23,-103 -15,-30 -32,-53 -51,-71 -20,-18 -47,-34 -83,-48 -36,-15 -66,-25 -90,-31 -25,-7 -58,-14 -99,-22 -6,-1 -15,-3 -28,-5 -71,-15 -120,-29 -148,-41 -27,-13 -41,-35 -41,-68 0,-27 12,-49 36,-64 24,-16 58,-23 102,-23 51,0 91,9 117,27 27,19 44,50 51,95l227 0z"/>
   <path class="fil4" d="M8062 12684l-84 0 0 191 -219 0 0 -191 -84 0 0 481 84 0 0 -216 219 0 0 216 84 0 0 -481zm262 122c-54,0 -97,17 -129,50 -32,34 -48,78 -48,135 0,57 16,102 48,135 32,33 75,50 129,50 53,0 96,-17 127,-50 31,-33 47,-78 47,-135 0,-57 -16,-101 -48,-135 -31,-33 -73,-50 -126,-50zm-1 61c30,0 54,11 71,33 18,22 26,52 26,90 0,39 -8,70 -26,92 -17,23 -41,34 -71,34 -30,0 -55,-11 -72,-33 -18,-22 -26,-53 -26,-92 0,-38 8,-69 26,-91 17,-22 41,-33 72,-33zm448 -57l-15 -2c-53,0 -92,26 -116,78l0 -70 -72 0 0 349 76 0 0 -153c0,-87 33,-131 100,-131 4,0 13,1 27,2l0 -73zm125 6l-72 0 0 349 76 0 0 -201c0,-27 7,-50 21,-67 13,-17 33,-25 59,-25 23,0 38,6 46,19 7,12 11,31 11,56l0 218 77 0 0 -205c0,-28 6,-49 19,-65 13,-15 32,-23 56,-23 25,0 41,7 50,21 8,14 12,33 12,58l0 214 77 0 0 -247c0,-35 -11,-62 -32,-82 -22,-19 -49,-29 -82,-29 -47,0 -84,20 -112,59 -8,-18 -20,-33 -37,-43 -17,-11 -37,-16 -60,-16 -44,0 -80,20 -109,59l0 -50zm685 -10c-54,0 -97,17 -129,50 -32,34 -48,78 -48,135 0,57 16,102 48,135 32,33 75,50 129,50 53,0 95,-17 126,-50 32,-33 47,-78 47,-135 0,-57 -16,-101 -47,-135 -31,-33 -73,-50 -126,-50zm-2 61c31,0 55,11 72,33 17,22 26,52 26,90 0,39 -9,70 -26,92 -17,23 -41,34 -71,34 -31,0 -55,-11 -72,-33 -18,-22 -27,-53 -27,-92 0,-38 9,-69 27,-91 17,-22 41,-33 71,-33zm325 -51l-72 0 0 349 76 0 0 -188c0,-70 29,-106 85,-106 15,0 27,3 36,7 10,5 16,12 21,22 4,9 7,18 8,28 1,9 2,20 2,34l0 203 77 0 0 -232c0,-41 -10,-72 -29,-94 -20,-21 -49,-32 -89,-32 -49,0 -87,20 -115,61l0 -52zm636 240l-74 0c-7,22 -18,39 -31,49 -13,10 -30,15 -51,15 -30,0 -53,-10 -70,-29 -16,-19 -25,-46 -26,-81l256 0 0 -8c0,-61 -15,-108 -44,-143 -30,-35 -70,-53 -120,-53 -49,0 -89,18 -121,54 -32,35 -47,80 -47,135 0,53 15,97 46,131 30,34 72,51 124,51 40,0 74,-11 102,-32 29,-21 47,-51 56,-89zm-72 -98l-178 0c3,-30 13,-54 28,-70 16,-16 36,-24 61,-24 25,0 46,8 61,25 16,17 25,40 28,69zm422 -40c0,-38 -14,-66 -41,-84 -27,-18 -62,-28 -104,-28 -45,0 -79,10 -104,28 -26,19 -38,45 -38,78 0,35 16,61 48,76 13,7 44,16 94,28 1,1 2,1 4,2 1,0 2,0 3,1l4 0c12,3 21,5 28,7 7,2 14,5 22,9 7,4 13,9 16,14 4,5 5,12 5,20 0,15 -6,27 -20,36 -14,10 -32,14 -54,14 -52,0 -80,-22 -84,-65l-73 0c1,39 15,70 42,90 26,21 64,31 113,31 47,0 83,-10 111,-31 27,-20 41,-48 41,-84 0,-14 -3,-28 -9,-39 -6,-12 -13,-21 -20,-27 -7,-7 -19,-13 -34,-19 -15,-6 -26,-10 -34,-12 -8,-2 -20,-5 -38,-9 -4,-1 -10,-3 -17,-4 -8,-2 -13,-3 -17,-4 -3,-1 -8,-2 -13,-4 -6,-1 -10,-2 -13,-4 -2,-1 -6,-2 -10,-4 -4,-2 -6,-4 -8,-5 -2,-2 -3,-4 -5,-7 -2,-2 -4,-5 -4,-8 -1,-3 -1,-7 -1,-11 0,-13 5,-23 16,-30 10,-7 26,-11 45,-11 46,0 71,19 76,56l73 0zm853 -234l160 481 94 0 164 -481 -86 0 -123 380 -121 -380 -88 0zm552 -2l-77 0 0 76 77 0 0 -76zm0 134l-77 0 0 349 77 0 0 -349zm265 0l-70 0 0 -104 -77 0 0 104 -58 0 0 57 58 0 0 166 0 5 0 4 0 4 0 29c0,6 1,14 2,25 1,11 3,18 5,22 3,5 6,10 11,17 4,6 10,11 16,13 7,3 16,6 26,8 10,2 21,3 35,3 19,0 36,-1 52,-3l0 -61c-8,1 -18,1 -31,1 -9,0 -17,-1 -23,-2 -5,-2 -9,-6 -12,-11 -2,-5 -3,-10 -4,-14 0,-4 0,-12 0,-23l0 -183 70 0 0 -57zm63 108l73 0c3,-23 10,-39 22,-48 11,-10 30,-14 55,-14 47,0 71,17 71,52 0,13 -1,22 -5,25 -3,5 -10,9 -20,12 -10,2 -28,5 -56,9 -12,1 -20,2 -23,3 -4,0 -12,2 -24,3 -11,2 -19,4 -24,6 -5,1 -12,3 -22,7 -9,3 -16,6 -20,10 -5,3 -10,8 -17,13 -6,6 -11,12 -14,18 -3,6 -5,14 -7,22 -3,9 -4,18 -4,28 0,32 11,57 32,76 21,19 49,28 85,28 52,0 93,-14 122,-42 5,28 24,42 56,42 14,0 30,-2 50,-7l0 -55c-6,1 -12,2 -18,2 -7,0 -11,-2 -14,-6 -2,-3 -4,-10 -4,-20l0 -177c0,-36 -13,-63 -38,-80 -26,-17 -61,-25 -104,-25 -93,0 -144,39 -152,118zm220 66l0 41c0,30 -5,50 -15,61 -18,18 -45,27 -79,27 -19,0 -35,-4 -46,-13 -11,-9 -16,-22 -16,-39 0,-9 1,-17 5,-23 3,-7 6,-12 11,-16 4,-4 10,-7 18,-9 8,-3 14,-5 20,-6 5,-1 12,-3 22,-4 3,0 10,-1 20,-3 10,-1 17,-2 22,-3 4,0 11,-2 18,-4 8,-3 15,-6 20,-9zm243 -174l-73 0 0 349 77 0 0 -201c0,-27 6,-50 20,-67 13,-17 33,-25 59,-25 23,0 39,6 46,19 7,12 11,31 11,56l0 218 77 0 0 -205c0,-28 6,-49 19,-65 13,-15 32,-23 57,-23 24,0 40,7 49,21 8,14 12,33 12,58l0 214 77 0 0 -247c0,-35 -11,-62 -32,-82 -22,-19 -49,-29 -82,-29 -47,0 -84,20 -112,59 -8,-18 -20,-33 -37,-43 -17,-11 -37,-16 -60,-16 -43,0 -80,20 -108,59l0 -50zm602 -134l-77 0 0 76 77 0 0 -76zm0 134l-77 0 0 349 77 0 0 -349zm169 0l-73 0 0 349 77 0 0 -188c0,-70 28,-106 85,-106 14,0 26,3 36,7 9,5 16,12 20,22 5,9 7,18 9,28 1,9 2,20 2,34l0 203 76 0 0 -232c0,-41 -9,-72 -29,-94 -19,-21 -49,-32 -88,-32 -49,0 -87,20 -115,61l0 -52zm599 102c0,-38 -13,-66 -40,-84 -27,-18 -62,-28 -105,-28 -44,0 -79,10 -104,28 -25,19 -37,45 -37,78 0,35 15,61 47,76 14,7 45,16 94,28 2,1 3,1 4,2 2,0 3,0 4,1l4 0c11,3 21,5 28,7 7,2 14,5 21,9 8,4 14,9 17,14 3,5 5,12 5,20 0,15 -7,27 -21,36 -13,10 -31,14 -54,14 -52,0 -80,-22 -84,-65l-73 0c2,39 16,70 42,90 27,21 65,31 114,31 46,0 83,-10 110,-31 28,-20 41,-48 41,-84 0,-14 -3,-28 -9,-39 -6,-12 -12,-21 -20,-27 -7,-7 -18,-13 -33,-19 -15,-6 -26,-10 -34,-12 -8,-2 -21,-5 -38,-9 -4,-1 -10,-3 -18,-4 -7,-2 -13,-3 -16,-4 -3,-1 -8,-2 -14,-4 -6,-1 -10,-2 -12,-4 -3,-1 -6,-2 -10,-4 -4,-2 -7,-4 -8,-5 -2,-2 -4,-4 -6,-7 -2,-2 -3,-5 -4,-8 -1,-3 -1,-7 -1,-11 0,-13 5,-23 16,-30 11,-7 26,-11 46,-11 46,0 71,19 75,56l73 0zm862 -234l126 481 87 0 99 -370 97 370 85 0 132 -481 -85 0 -90 366 -95 -366 -85 0 -98 366 -88 -366 -85 0zm980 372l-73 0c-8,22 -18,39 -31,49 -14,10 -31,15 -52,15 -29,0 -53,-10 -69,-29 -17,-19 -25,-46 -26,-81l256 0 0 -8c0,-61 -15,-108 -45,-143 -29,-35 -69,-53 -120,-53 -49,0 -89,18 -121,54 -31,35 -47,80 -47,135 0,53 15,97 46,131 31,34 72,51 125,51 39,0 73,-11 102,-32 28,-21 47,-51 55,-89zm-72 -98l-178 0c4,-30 13,-54 29,-70 15,-16 35,-24 60,-24 26,0 46,8 62,25 16,17 25,40 27,69zm226 -274l-76 0 0 481 76 0 0 -481zm174 0l-76 0 0 481 76 0 0 -481zm169 132l-72 0 0 349 76 0 0 -188c0,-70 29,-106 85,-106 15,0 27,3 36,7 10,5 17,12 21,22 4,9 7,18 8,28 2,9 2,20 2,34l0 203 77 0 0 -232c0,-41 -10,-72 -29,-94 -20,-21 -49,-32 -89,-32 -49,0 -87,20 -115,61l0 -52zm636 240l-74 0c-7,22 -18,39 -31,49 -13,10 -30,15 -51,15 -30,0 -53,-10 -70,-29 -16,-19 -25,-46 -26,-81l256 0 0 -8c0,-61 -15,-108 -44,-143 -30,-35 -70,-53 -120,-53 -49,0 -89,18 -121,54 -32,35 -47,80 -47,135 0,53 15,97 46,131 30,34 72,51 124,51 40,0 74,-11 102,-32 29,-21 47,-51 56,-89zm-72 -98l-178 0c3,-30 13,-54 28,-70 16,-16 36,-24 61,-24 25,0 46,8 61,25 16,17 25,40 28,69zm422 -40c0,-38 -14,-66 -41,-84 -27,-18 -62,-28 -104,-28 -45,0 -79,10 -104,28 -25,19 -38,45 -38,78 0,35 16,61 48,76 13,7 44,16 94,28 1,1 2,1 4,2 1,0 2,0 3,1l4 0c12,3 21,5 28,7 7,2 14,5 22,9 8,4 13,9 16,14 4,5 5,12 5,20 0,15 -6,27 -20,36 -14,10 -32,14 -54,14 -52,0 -80,-22 -84,-65l-73 0c1,39 15,70 42,90 26,21 64,31 113,31 47,0 83,-10 111,-31 27,-20 41,-48 41,-84 0,-14 -3,-28 -9,-39 -6,-12 -13,-21 -20,-27 -7,-7 -18,-13 -33,-19 -15,-6 -27,-10 -35,-12 -8,-2 -20,-5 -38,-9 -4,-1 -10,-3 -17,-4 -8,-2 -13,-3 -17,-4 -3,-1 -8,-2 -13,-4 -6,-1 -10,-2 -13,-4 -2,-1 -6,-2 -10,-4 -4,-2 -6,-4 -8,-5 -2,-2 -3,-4 -5,-7 -2,-2 -4,-5 -4,-8 -1,-3 -1,-7 -1,-11 0,-13 5,-23 16,-30 10,-7 26,-11 45,-11 46,0 71,19 76,56l73 0zm361 0c0,-38 -14,-66 -41,-84 -27,-18 -62,-28 -104,-28 -45,0 -79,10 -104,28 -25,19 -38,45 -38,78 0,35 16,61 48,76 13,7 45,16 94,28 1,1 3,1 4,2 1,0 2,0 3,1l4 0c12,3 21,5 28,7 7,2 14,5 22,9 8,4 13,9 16,14 4,5 6,12 6,20 0,15 -7,27 -21,36 -14,10 -32,14 -54,14 -52,0 -80,-22 -84,-65l-73 0c1,39 16,70 42,90 26,21 64,31 114,31 46,0 82,-10 110,-31 27,-20 41,-48 41,-84 0,-14 -3,-28 -9,-39 -6,-12 -13,-21 -20,-27 -7,-7 -18,-13 -33,-19 -15,-6 -27,-10 -35,-12 -7,-2 -20,-5 -38,-9 -4,-1 -9,-3 -17,-4 -8,-2 -13,-3 -17,-4 -3,-1 -8,-2 -13,-4 -6,-1 -10,-2 -13,-4 -2,-1 -5,-2 -10,-4 -4,-2 -6,-4 -8,-5 -1,-2 -3,-4 -5,-7 -2,-2 -4,-5 -4,-8 -1,-3 -1,-7 -1,-11 0,-13 5,-23 16,-30 11,-7 26,-11 45,-11 46,0 71,19 76,56l73 0z"/>
   <ellipse class="fil4" cx="14964" cy="12929" rx="95" ry="96"/>
   <ellipse class="fil4" cx="11344" cy="12929" rx="95" ry="96"/>
  </g>
 </g>
</svg>
