<?xml version="1.0" encoding="UTF-8"?>
<!DOCTYPE svg PUBLIC "-//W3C//DTD SVG 1.1//EN" "http://www.w3.org/Graphics/SVG/1.1/DTD/svg11.dtd">
<!-- Creator: CorelDRAW X7 -->
<svg xmlns="http://www.w3.org/2000/svg" xml:space="preserve" width="2.1166mm" height="2.1166mm" version="1.1" style="shape-rendering:geometricPrecision; text-rendering:geometricPrecision; image-rendering:optimizeQuality; fill-rule:evenodd; clip-rule:evenodd"
viewBox="0 0 212 212"
 xmlns:xlink="http://www.w3.org/1999/xlink">
 <defs>
  <style type="text/css">
   <![CDATA[
    .fil0 {fill:#00009C}
    .fil1 {fill:#FEFEFE;fill-rule:nonzero}
   ]]>
  </style>
 </defs>
 <g id="Layer_x0020_1">
  <metadata id="CorelCorpID_0Corel-Layer"/>
  <g id="_623691520">
   <circle class="fil0" cx="106" cy="106" r="85"/>
   <g>
    <path class="fil1" d="M106 46c-6,0 -17,19 -18,53l36 0c-1,-34 -12,-53 -18,-53z"/>
    <path class="fil1" d="M88 113c1,34 12,52 18,52 6,0 17,-18 18,-52l-36 0z"/>
    <path class="fil1" d="M137 99l35 0c-3,-28 -23,-51 -50,-58 9,12 15,35 15,58z"/>
    <path class="fil1" d="M74 99c1,-23 6,-46 16,-58 -27,7 -47,30 -50,58l34 0z"/>
    <path class="fil1" d="M137 113c0,23 -6,45 -15,57 27,-6 47,-29 50,-57l-35 0z"/>
    <path class="fil1" d="M74 113l-34 0c3,28 23,51 50,57 -10,-12 -15,-34 -16,-57z"/>
   </g>
  </g>
 </g>
</svg>
